<?xml version="1.0" encoding="UTF-8"?>
<svg width="27px" height="27px" viewBox="0 0 27 27" version="1.1" xmlns="http://www.w3.org/2000/svg" xmlns:xlink="http://www.w3.org/1999/xlink">
    <!-- Generator: Sketch 48.2 (47327) - http://www.bohemiancoding.com/sketch -->
    <title>search</title>
    <desc>Created with Sketch.</desc>
    <defs></defs>
    <g id="profile" stroke="none" stroke-width="1" fill="none" fill-rule="evenodd" transform="translate(-125.000000, -614.000000)" fill-opacity="0.52">
        <g id="search" transform="translate(125.000000, 614.000000)" fill="#000000">
            <path d="M18.75,16.5 L17.55,16.5 L17.1,16.05 C18.6,14.4 19.5,12.15 19.5,9.75 C19.5,4.35 15.15,0 9.75,0 C4.35,0 0,4.35 0,9.75 C0,15.15 4.35,19.5 9.75,19.5 C12.15,19.5 14.4,18.6 16.05,17.1 L16.5,17.55 L16.5,18.75 L24,26.25 L26.25,24 L18.75,16.5 L18.75,16.5 Z M9.75,16.5 C6,16.5 3,13.5 3,9.75 C3,6 6,3 9.75,3 C13.5,3 16.5,6 16.5,9.75 C16.5,13.5 13.5,16.5 9.75,16.5 L9.75,16.5 Z" id="Shape"></path>
        </g>
    </g>
</svg>